<?xml version="1.0" encoding="UTF-8"?>
<svg width="22px" height="20px" viewBox="0 0 22 20" version="1.1" xmlns="http://www.w3.org/2000/svg" xmlns:xlink="http://www.w3.org/1999/xlink">
    <!-- Generator: Sketch 48.2 (47327) - http://www.bohemiancoding.com/sketch -->
    <title>undo</title>
    <desc>Created with Sketch.</desc>
    <defs></defs>
    <g id="Artboard" stroke="none" stroke-width="1" fill="none" fill-rule="evenodd" transform="translate(-14.000000, -152.000000)">
        <path d="M22,163 C22,162.447715 22.4477153,162 23,162 C27.6444071,162 31.1419433,163.261373 33.4120145,165.7614 C32.1154239,160.793392 28.6642351,158.263459 22.9537262,157.998929 C22.4200059,157.974205 22,157.534293 22,157 L22,155.203768 L16.5185923,160 L22,164.796232 L22,163 Z M24,167 C24,167.859159 22.9880783,168.318337 22.3414954,167.752577 L14.3414954,160.752577 C13.8861682,160.354165 13.8861682,159.645835 14.3414954,159.247423 L22.3414954,152.247423 C22.9880783,151.681663 24,152.140841 24,153 L24,156.066322 C31.943994,156.791872 36.0131786,161.884286 36.0000614,171.001439 C35.998366,172.179837 34.3157339,172.385756 34.0299217,171.242543 C32.8824739,166.652895 29.6201642,164.2687 24,164.021466 L24,167 Z" id="undo" fill="#242423" fill-rule="nonzero"></path>
    </g>
</svg>